<svg width="149" height="150" viewBox="0 0 149 150" fill="none" xmlns="http://www.w3.org/2000/svg">
<path d="M78.4347 2.34004L84.1863 4.95742C85.8038 5.69351 87.5817 6.00701 89.3535 5.86854L95.6534 5.37617C98.3917 5.16217 101.089 6.14374 103.049 8.06779L107.558 12.4945C108.827 13.7395 110.39 14.6421 112.102 15.118L118.191 16.81C120.837 17.5454 123.035 19.3902 124.219 21.8686L126.943 27.5707C127.709 29.1743 128.869 30.5573 130.315 31.5901L135.458 35.2624C137.693 36.8586 139.128 39.344 139.393 42.0778L140.002 48.3675C140.173 50.1364 140.791 51.8329 141.796 53.298L145.373 58.5077C146.927 60.7721 147.426 63.5984 146.739 66.2579L145.161 72.3766C144.717 74.0974 144.717 75.9028 145.161 77.6236L146.739 83.7423C147.426 86.4018 146.927 89.2281 145.373 91.4925L141.796 96.7022C140.791 98.1673 140.173 99.8638 140.002 101.633L139.393 107.922C139.128 110.656 137.693 113.142 135.458 114.738L130.315 118.41C128.869 119.443 127.709 120.826 126.943 122.429L124.219 128.132C123.035 130.61 120.837 132.455 118.191 133.19L112.102 134.882C110.39 135.358 108.827 136.261 107.558 137.506L103.049 141.932C101.089 143.856 98.3917 144.838 95.6534 144.624L89.3535 144.132C87.5817 143.993 85.8038 144.307 84.1863 145.043L78.4347 147.66C75.9348 148.798 73.0648 148.798 70.5649 147.66L64.8133 145.043C63.1958 144.307 61.4179 143.993 59.6461 144.132L53.3462 144.624C50.6079 144.838 47.9111 143.856 45.951 141.932L41.4415 137.506C40.1733 136.261 38.6098 135.358 36.8975 134.882L30.8091 133.19C28.1628 132.455 25.9643 130.61 24.7805 128.132L22.057 122.429C21.291 120.826 20.1306 119.443 18.6843 118.41L13.5418 114.738C11.3066 113.142 9.87165 110.656 9.60691 107.922L8.99783 101.633C8.82653 99.8638 8.20907 98.1673 7.20327 96.7022L3.62691 91.4925C2.07245 89.2281 1.57409 86.4018 2.26034 83.7423L3.8392 77.6236C4.28322 75.9028 4.28322 74.0974 3.8392 72.3766L2.26034 66.2579C1.57409 63.5984 2.07245 60.7721 3.62691 58.5077L7.20327 53.298C8.20907 51.8329 8.82653 50.1364 8.99783 48.3675L9.60691 42.0778C9.87165 39.344 11.3066 36.8586 13.5418 35.2624L18.6843 31.5901C20.1306 30.5573 21.291 29.1743 22.057 27.5707L24.7805 21.8686C25.9643 19.3902 28.1628 17.5454 30.8091 16.81L36.8975 15.118C38.6098 14.6421 40.1733 13.7395 41.4415 12.4945L45.951 8.06779C47.9111 6.14374 50.6079 5.16217 53.3462 5.37617L59.6461 5.86854C61.4179 6.00701 63.1958 5.69351 64.8133 4.95742L70.5649 2.34005C73.0648 1.20241 75.9348 1.20241 78.4347 2.34004Z" stroke="white" stroke-opacity="0.3"/>
</svg>
