<svg width="1435" height="877" viewBox="0 0 1435 877" fill="none" xmlns="http://www.w3.org/2000/svg">
<g clip-path="url(#clip0_437_289)">
<path d="M1435 0H0V877H1435V0Z" fill="#0A0706"/>
<g filter="url(#filter0_f_437_289)">
<path d="M172 331C270.307 331 350 251.307 350 153C350 54.6933 270.307 -25 172 -25C73.6933 -25 -6 54.6933 -6 153C-6 251.307 73.6933 331 172 331Z" fill="#303030"/>
</g>
<g filter="url(#filter1_f_437_289)">
<path d="M1299 320C1397.31 320 1477 240.307 1477 142C1477 43.6933 1397.31 -36 1299 -36C1200.69 -36 1121 43.6933 1121 142C1121 240.307 1200.69 320 1299 320Z" fill="#303030"/>
</g>
<g filter="url(#filter2_f_437_289)">
<path d="M1082 677C1201.85 677 1299 579.846 1299 460C1299 340.154 1201.85 243 1082 243C962.154 243 865 340.154 865 460C865 579.846 962.154 677 1082 677Z" fill="#303030"/>
</g>
<path d="M499.215 93.2226L575.998 219.414L214.896 438.802L718.436 746.756L639.427 877L63 504.214V374.549L499.215 93.2226Z" fill="black" fill-opacity="0.21"/>
<path d="M937.775 783.777L860.992 657.586L1222.09 438.198L718.554 130.244L797.563 0L1373.99 372.786V502.451L937.775 783.777Z" fill="black" fill-opacity="0.21"/>
<path d="M258 511V365H342V381.4H275.8V426.6H335V442.6H275.8V494.6H342V511H258ZM372.322 511V365H398.922L417.522 428.2L436.922 365H463.522V511H446.122V442C446.122 435.467 446.189 428 446.322 419.6C446.589 411.067 446.922 402.467 447.322 393.8C447.722 385.133 448.189 377.333 448.722 370.4L425.122 445.8H409.522L386.922 372.2C387.989 382.067 388.722 392.867 389.122 404.6C389.522 416.333 389.722 428.8 389.722 442V511H372.322ZM616.366 511V365H657.766C671.099 365 681.499 368.333 688.966 375C696.566 381.667 700.366 390.933 700.366 402.8C700.366 410.267 697.966 417 693.166 423C688.499 429 682.366 432.733 674.766 434.2V434.8C680.499 435.467 685.499 437.467 689.766 440.8C694.166 444.133 697.566 448.4 699.966 453.6C702.499 458.667 703.766 464.267 703.766 470.4C703.766 482.933 699.899 492.867 692.166 500.2C684.566 507.4 674.099 511 660.766 511H616.366ZM633.966 427.2H657.566C665.299 427.2 671.366 425.133 675.766 421C680.299 416.867 682.566 411.267 682.566 404.2C682.566 397.133 680.366 391.533 675.966 387.4C671.566 383.267 665.499 381.2 657.766 381.2H633.966V427.2ZM633.966 494.8H658.766C667.166 494.8 673.766 492.6 678.566 488.2C683.499 483.667 685.966 477.533 685.966 469.8C685.966 461.8 683.499 455.333 678.566 450.4C673.766 445.333 667.166 442.8 658.766 442.8H633.966V494.8ZM736.288 511V365H781.288C789.954 365 797.554 366.8 804.088 370.4C810.621 373.867 815.688 378.733 819.288 385C822.888 391.267 824.688 398.6 824.688 407C824.688 416.867 822.154 425.333 817.088 432.4C812.021 439.467 805.288 444.4 796.888 447.2L826.688 511H806.888L778.288 449H754.088V511H736.288ZM754.088 432.8H781.288C788.754 432.8 794.754 430.467 799.288 425.8C803.821 421 806.088 414.733 806.088 407C806.088 399.133 803.821 392.867 799.288 388.2C794.754 383.533 788.754 381.2 781.288 381.2H754.088V432.8ZM857.609 511V365H941.609V381.4H875.409V426.6H934.609V442.6H875.409V494.6H941.609V511H857.609ZM1005.13 511L967.531 365H985.931L1010.93 464.4C1012.66 471.333 1014.06 477.733 1015.13 483.6C1016.33 489.467 1017.2 493.933 1017.73 497C1018.26 493.933 1019.13 489.467 1020.33 483.6C1021.66 477.6 1023.2 471.133 1024.93 464.2L1048.93 365H1067.53L1029.73 511H1005.13ZM1097.45 511V365H1181.45V381.4H1115.25V426.6H1174.45V442.6H1115.25V494.6H1181.45V511H1097.45Z" fill="#EEE0B1"/>
</g>
<defs>
<filter id="filter0_f_437_289" x="-356" y="-375" width="1056" height="1056" filterUnits="userSpaceOnUse" color-interpolation-filters="sRGB">
<feFlood flood-opacity="0" result="BackgroundImageFix"/>
<feBlend mode="normal" in="SourceGraphic" in2="BackgroundImageFix" result="shape"/>
<feGaussianBlur stdDeviation="175" result="effect1_foregroundBlur_437_289"/>
</filter>
<filter id="filter1_f_437_289" x="771" y="-386" width="1056" height="1056" filterUnits="userSpaceOnUse" color-interpolation-filters="sRGB">
<feFlood flood-opacity="0" result="BackgroundImageFix"/>
<feBlend mode="normal" in="SourceGraphic" in2="BackgroundImageFix" result="shape"/>
<feGaussianBlur stdDeviation="175" result="effect1_foregroundBlur_437_289"/>
</filter>
<filter id="filter2_f_437_289" x="515" y="-107" width="1134" height="1134" filterUnits="userSpaceOnUse" color-interpolation-filters="sRGB">
<feFlood flood-opacity="0" result="BackgroundImageFix"/>
<feBlend mode="normal" in="SourceGraphic" in2="BackgroundImageFix" result="shape"/>
<feGaussianBlur stdDeviation="175" result="effect1_foregroundBlur_437_289"/>
</filter>
<clipPath id="clip0_437_289">
<rect width="1435" height="877" fill="white"/>
</clipPath>
</defs>
</svg>
