<svg width="287" height="48" viewBox="0 0 287 48" fill="none" xmlns="http://www.w3.org/2000/svg">
<path d="M26.2971 9L30.0458 14.9831L12.416 25.385L37 39.986L33.1426 46.1613L5 28.4863V22.3385L26.2971 9Z" fill="#F13024"/>
<path d="M260.703 42.1614L256.954 36.1782L274.584 25.7764L250 11.1753L253.857 5.00009L282 22.675V28.8228L260.703 42.1614Z" fill="#F13024"/>
<path d="M48.676 40.21C47.304 40.21 46.1 40.014 45.064 39.622C44.028 39.202 43.23 38.502 42.67 37.522C42.11 36.542 41.83 35.226 41.83 33.574V10.768H44.014V33.952C44.014 35.296 44.378 36.346 45.106 37.102C45.862 37.83 46.898 38.194 48.214 38.194H52.33V40.21H48.676ZM37.63 19.756V17.95H52.33V19.756H37.63ZM62.6197 40V17.95H64.3837V27.274H64.0477C64.0477 24.082 64.7617 21.702 66.1897 20.134C67.6177 18.566 69.9277 17.782 73.1197 17.782H73.8757V19.798H72.6997C70.0957 19.798 68.1357 20.47 66.8197 21.814C65.5037 23.13 64.8457 25.076 64.8457 27.652V40H62.6197ZM84.269 40V17.95H86.537V40H84.269ZM80.615 19.882V17.95H86.537V19.882H80.615ZM84.479 13.33C83.891 13.33 83.443 13.176 83.135 12.868C82.827 12.532 82.673 12.112 82.673 11.608C82.673 11.076 82.827 10.642 83.135 10.306C83.443 9.97 83.905 9.802 84.521 9.802C85.109 9.802 85.557 9.97 85.865 10.306C86.173 10.642 86.327 11.076 86.327 11.608C86.327 12.112 86.173 12.532 85.865 12.868C85.585 13.176 85.123 13.33 84.479 13.33ZM108.044 40.714C106.224 40.714 104.628 40.378 103.256 39.706C101.912 39.034 100.778 38.138 99.8537 37.018C98.9577 35.898 98.2857 34.652 97.8377 33.28C97.3897 31.908 97.1657 30.522 97.1657 29.122V28.702C97.1657 27.274 97.3897 25.874 97.8377 24.502C98.2857 23.13 98.9577 21.912 99.8537 20.848C100.778 19.756 101.912 18.888 103.256 18.244C104.628 17.6 106.224 17.278 108.044 17.278C109.808 17.278 111.376 17.6 112.748 18.244C114.148 18.888 115.282 19.798 116.15 20.974C117.046 22.122 117.606 23.508 117.83 25.132H115.646C115.394 23.452 114.61 22.066 113.294 20.974C111.978 19.854 110.228 19.294 108.044 19.294C106.112 19.294 104.502 19.728 103.214 20.596C101.926 21.464 100.96 22.626 100.316 24.082C99.6997 25.538 99.3917 27.148 99.3917 28.912C99.3917 30.62 99.7137 32.216 100.358 33.7C101.002 35.184 101.968 36.388 103.256 37.312C104.544 38.208 106.14 38.656 108.044 38.656C109.528 38.656 110.83 38.39 111.95 37.858C113.098 37.298 114.022 36.57 114.722 35.674C115.422 34.75 115.842 33.742 115.982 32.65H118.166C117.97 34.274 117.41 35.688 116.486 36.892C115.562 38.068 114.372 39.006 112.916 39.706C111.46 40.378 109.836 40.714 108.044 40.714ZM128.059 40V9.34H130.285V25.72L129.487 27.148C129.487 25.216 129.781 23.522 130.369 22.066C130.985 20.582 131.909 19.434 133.141 18.622C134.373 17.782 135.927 17.362 137.803 17.362H137.887C140.631 17.362 142.703 18.23 144.103 19.966C145.503 21.674 146.203 24.012 146.203 26.98V40H143.935V26.476C143.935 24.348 143.361 22.64 142.213 21.352C141.065 20.064 139.441 19.42 137.341 19.42C135.185 19.42 133.463 20.106 132.175 21.478C130.915 22.822 130.285 24.586 130.285 26.77V40H128.059ZM171.817 40V33.406H171.397V25.3C171.397 23.536 170.935 22.178 170.011 21.226C169.087 20.246 167.561 19.756 165.433 19.756C164.677 19.756 163.907 19.784 163.123 19.84C162.339 19.868 161.597 19.91 160.897 19.966C160.197 19.994 159.567 20.05 159.007 20.134V18.118C159.567 18.034 160.155 17.964 160.771 17.908C161.415 17.852 162.059 17.81 162.703 17.782C163.347 17.754 163.963 17.74 164.551 17.74C166.763 17.74 168.527 18.034 169.843 18.622C171.159 19.182 172.111 20.05 172.699 21.226C173.287 22.374 173.581 23.844 173.581 25.636V40H171.817ZM164.131 40.588C162.647 40.588 161.317 40.322 160.141 39.79C158.965 39.258 158.027 38.474 157.327 37.438C156.655 36.402 156.319 35.142 156.319 33.658C156.319 32.23 156.641 31.012 157.285 30.004C157.957 28.996 158.909 28.226 160.141 27.694C161.401 27.162 162.913 26.896 164.677 26.896H171.607V28.702H164.467C162.563 28.702 161.093 29.164 160.057 30.088C159.049 30.984 158.545 32.174 158.545 33.658C158.545 35.226 159.091 36.472 160.183 37.396C161.275 38.292 162.703 38.74 164.467 38.74C165.559 38.74 166.623 38.53 167.659 38.11C168.695 37.69 169.563 36.99 170.263 36.01C170.963 35.002 171.341 33.658 171.397 31.978L172.237 32.944C172.153 34.652 171.733 36.08 170.977 37.228C170.249 38.348 169.297 39.188 168.121 39.748C166.945 40.308 165.615 40.588 164.131 40.588ZM186.875 40V17.95H189.143V40H186.875ZM183.221 19.882V17.95H189.143V19.882H183.221ZM187.085 13.33C186.497 13.33 186.049 13.176 185.741 12.868C185.433 12.532 185.279 12.112 185.279 11.608C185.279 11.076 185.433 10.642 185.741 10.306C186.049 9.97 186.511 9.802 187.127 9.802C187.715 9.802 188.163 9.97 188.471 10.306C188.779 10.642 188.933 11.076 188.933 11.608C188.933 12.112 188.779 12.532 188.471 12.868C188.191 13.176 187.729 13.33 187.085 13.33ZM201.62 40V17.95H203.384V26.98H202.88C202.88 25.048 203.188 23.368 203.804 21.94C204.448 20.484 205.386 19.364 206.618 18.58C207.878 17.768 209.432 17.362 211.28 17.362H211.406C214.178 17.362 216.264 18.23 217.664 19.966C219.064 21.674 219.764 24.012 219.764 26.98V40H217.496V26.476C217.496 24.376 216.922 22.682 215.774 21.394C214.654 20.078 213.03 19.42 210.902 19.42C208.746 19.42 207.024 20.092 205.736 21.436C204.476 22.752 203.846 24.502 203.846 26.686V40H201.62ZM238.49 40.63C235.746 40.63 233.632 40 232.148 38.74C230.692 37.48 229.95 35.87 229.922 33.91H232.106C232.106 35.17 232.596 36.276 233.576 37.228C234.584 38.152 236.222 38.614 238.49 38.614C240.702 38.614 242.326 38.152 243.362 37.228C244.398 36.276 244.916 35.156 244.916 33.868C244.916 32.608 244.44 31.642 243.488 30.97C242.564 30.298 241.304 29.878 239.708 29.71L237.104 29.416C235.172 29.192 233.632 28.59 232.484 27.61C231.364 26.63 230.804 25.3 230.804 23.62C230.804 22.416 231.112 21.338 231.728 20.386C232.344 19.434 233.226 18.678 234.374 18.118C235.55 17.558 236.922 17.278 238.49 17.278C240.786 17.278 242.634 17.838 244.034 18.958C245.462 20.078 246.19 21.604 246.218 23.536H244.034C244.062 22.332 243.586 21.324 242.606 20.512C241.654 19.7 240.282 19.294 238.49 19.294C236.614 19.294 235.214 19.728 234.29 20.596C233.394 21.464 232.946 22.486 232.946 23.662C232.946 24.642 233.296 25.482 233.996 26.182C234.724 26.882 235.816 27.316 237.272 27.484L239.876 27.778C241.948 27.974 243.656 28.576 245 29.584C246.372 30.592 247.058 32.034 247.058 33.91C247.058 35.17 246.708 36.304 246.008 37.312C245.336 38.32 244.37 39.132 243.11 39.748C241.85 40.336 240.31 40.63 238.49 40.63Z" fill="white"/>
</svg>
