<svg width="446" height="47" viewBox="0 0 446 47" fill="none" xmlns="http://www.w3.org/2000/svg">
<path d="M46.08 38.836C43.9973 38.836 42.1933 38.484 40.668 37.78C39.172 37.076 37.9107 36.1373 36.884 34.964C35.8867 33.7907 35.1387 32.4707 34.64 31.004C34.1413 29.5373 33.892 28.0413 33.892 26.516V25.68C33.892 24.0667 34.1413 22.5267 34.64 21.06C35.168 19.564 35.9453 18.244 36.972 17.1C37.9987 15.9267 39.26 15.0027 40.756 14.328C42.2813 13.624 44.0413 13.272 46.036 13.272C48.1187 13.272 49.9813 13.6827 51.624 14.504C53.2667 15.296 54.572 16.4107 55.54 17.848C56.5373 19.2853 57.0947 20.9573 57.212 22.864H51.272C51.1253 21.632 50.5973 20.6053 49.688 19.784C48.808 18.9627 47.5907 18.552 46.036 18.552C44.6867 18.552 43.5573 18.8747 42.648 19.52C41.768 20.1653 41.108 21.06 40.668 22.204C40.228 23.3187 40.008 24.6093 40.008 26.076C40.008 27.484 40.2133 28.76 40.624 29.904C41.064 31.048 41.724 31.9427 42.604 32.588C43.5133 33.2333 44.672 33.556 46.08 33.556C47.136 33.556 48.0453 33.3653 48.808 32.984C49.5707 32.6027 50.172 32.0747 50.612 31.4C51.0813 30.7253 51.3747 29.9627 51.492 29.112H57.432C57.3147 31.048 56.7427 32.7493 55.716 34.216C54.7187 35.6533 53.384 36.7827 51.712 37.604C50.0693 38.4253 48.192 38.836 46.08 38.836ZM62.3315 38V14.108H67.1715V24.228H67.0395C67.0395 20.796 67.7728 18.2 69.2395 16.44C70.7061 14.68 72.8621 13.8 75.7075 13.8H76.5875V19.124H74.9155C72.8621 19.124 71.2635 19.6813 70.1195 20.796C69.0048 21.8813 68.4475 23.4653 68.4475 25.548V38H62.3315ZM81.8231 38V14.108H87.9391V38H81.8231ZM78.4791 18.684V14.108H87.9391V18.684H78.4791ZM84.0671 11.248C82.8645 11.248 81.9698 10.94 81.3831 10.324C80.8258 9.67867 80.5471 8.88667 80.5471 7.948C80.5471 6.95067 80.8258 6.144 81.3831 5.528C81.9698 4.912 82.8645 4.604 84.0671 4.604C85.2698 4.604 86.1498 4.912 86.7071 5.528C87.2645 6.144 87.5431 6.95067 87.5431 7.948C87.5431 8.88667 87.2645 9.67867 86.7071 10.324C86.1498 10.94 85.2698 11.248 84.0671 11.248ZM103.656 38.748C100.37 38.748 97.7891 38.0587 95.9117 36.68C94.0637 35.272 93.0957 33.336 93.0077 30.872H98.5077C98.5957 31.6933 99.0504 32.4413 99.8717 33.116C100.693 33.7907 101.984 34.128 103.744 34.128C105.21 34.128 106.369 33.864 107.22 33.336C108.1 32.808 108.54 32.0893 108.54 31.18C108.54 30.388 108.202 29.7573 107.528 29.288C106.882 28.8187 105.768 28.5107 104.184 28.364L102.072 28.144C99.4024 27.8507 97.3491 27.088 95.9117 25.856C94.4744 24.624 93.7557 22.9813 93.7557 20.928C93.7557 19.2853 94.1664 17.9067 94.9877 16.792C95.8091 15.6773 96.9384 14.8413 98.3757 14.284C99.8424 13.6973 101.514 13.404 103.392 13.404C106.325 13.404 108.701 14.0493 110.52 15.34C112.338 16.6307 113.292 18.5227 113.38 21.016H107.88C107.821 20.1947 107.41 19.4907 106.648 18.904C105.885 18.3173 104.785 18.024 103.348 18.024C102.057 18.024 101.06 18.2733 100.356 18.772C99.6517 19.2707 99.2997 19.916 99.2997 20.708C99.2997 21.4707 99.5784 22.0573 100.136 22.468C100.722 22.8787 101.661 23.1573 102.952 23.304L105.064 23.524C107.88 23.8173 110.08 24.5947 111.664 25.856C113.277 27.1173 114.084 28.8187 114.084 30.96C114.084 32.544 113.644 33.9227 112.764 35.096C111.913 36.24 110.71 37.1347 109.156 37.78C107.601 38.4253 105.768 38.748 103.656 38.748ZM129.52 38.308C127.32 38.308 125.501 38.0293 124.064 37.472C122.656 36.8853 121.6 35.9173 120.896 34.568C120.192 33.1893 119.84 31.3413 119.84 29.024L119.884 7.376H125.604L125.56 29.42C125.56 30.5933 125.868 31.5027 126.484 32.148C127.129 32.764 128.039 33.072 129.212 33.072H132.952V38.308H129.52ZM116.056 18.596V14.108H132.952V18.596H116.056ZM138.085 38V5.88H144.201V24.624H143.145C143.145 22.2187 143.453 20.18 144.069 18.508C144.685 16.836 145.595 15.56 146.797 14.68C148.029 13.8 149.584 13.36 151.461 13.36H151.725C154.453 13.36 156.521 14.2987 157.929 16.176C159.337 18.0533 160.041 20.7813 160.041 24.36V38H153.925V23.788C153.925 22.2627 153.485 21.06 152.605 20.18C151.755 19.3 150.625 18.86 149.217 18.86C147.721 18.86 146.504 19.3587 145.565 20.356C144.656 21.324 144.201 22.6 144.201 24.184V38H138.085ZM167.761 38V14.108H173.877V38H167.761ZM164.417 18.684V14.108H173.877V18.684H164.417ZM170.005 11.248C168.802 11.248 167.907 10.94 167.321 10.324C166.763 9.67867 166.485 8.88667 166.485 7.948C166.485 6.95067 166.763 6.144 167.321 5.528C167.907 4.912 168.802 4.604 170.005 4.604C171.207 4.604 172.087 4.912 172.645 5.528C173.202 6.144 173.481 6.95067 173.481 7.948C173.481 8.88667 173.202 9.67867 172.645 10.324C172.087 10.94 171.207 11.248 170.005 11.248ZM195.401 38V30.916H194.389V23.04C194.389 21.6613 194.052 20.6347 193.377 19.96C192.703 19.2853 191.661 18.948 190.253 18.948C189.52 18.948 188.64 18.9627 187.613 18.992C186.587 19.0213 185.545 19.0653 184.489 19.124C183.463 19.1533 182.539 19.1973 181.717 19.256V14.064C182.392 14.0053 183.155 13.9467 184.005 13.888C184.856 13.8293 185.721 13.8 186.601 13.8C187.511 13.7707 188.361 13.756 189.153 13.756C191.617 13.756 193.656 14.0787 195.269 14.724C196.912 15.3693 198.144 16.3813 198.965 17.76C199.816 19.1387 200.241 20.9427 200.241 23.172V38H195.401ZM187.701 38.616C185.971 38.616 184.445 38.308 183.125 37.692C181.835 37.076 180.823 36.196 180.089 35.052C179.385 33.908 179.033 32.5293 179.033 30.916C179.033 29.156 179.459 27.7187 180.309 26.604C181.189 25.4893 182.407 24.6533 183.961 24.096C185.545 23.5387 187.393 23.26 189.505 23.26H195.049V26.912H189.417C188.009 26.912 186.924 27.264 186.161 27.968C185.428 28.6427 185.061 29.5227 185.061 30.608C185.061 31.6933 185.428 32.5733 186.161 33.248C186.924 33.9227 188.009 34.26 189.417 34.26C190.268 34.26 191.045 34.1133 191.749 33.82C192.483 33.4973 193.084 32.9693 193.553 32.236C194.052 31.4733 194.331 30.4467 194.389 29.156L195.885 30.872C195.739 32.544 195.328 33.952 194.653 35.096C194.008 36.24 193.099 37.12 191.925 37.736C190.781 38.3227 189.373 38.616 187.701 38.616ZM206.792 38V14.108H211.632V24.36H211.192C211.192 21.9253 211.515 19.9013 212.16 18.288C212.806 16.6453 213.759 15.4133 215.02 14.592C216.311 13.7707 217.91 13.36 219.816 13.36H220.08C222.926 13.36 225.082 14.284 226.548 16.132C228.015 17.9507 228.748 20.6787 228.748 24.316V38H222.632V23.788C222.632 22.3213 222.207 21.1333 221.356 20.224C220.535 19.3147 219.391 18.86 217.924 18.86C216.428 18.86 215.211 19.3293 214.272 20.268C213.363 21.1773 212.908 22.4093 212.908 23.964V38H206.792ZM260 38V31.092H259.56V22.6C259.56 20.752 259.076 19.3293 258.108 18.332C257.14 17.3053 255.541 16.792 253.312 16.792C252.52 16.792 251.713 16.8213 250.892 16.88C250.07 16.9093 249.293 16.9533 248.56 17.012C247.826 17.0413 247.166 17.1 246.58 17.188V15.076C247.166 14.988 247.782 14.9147 248.428 14.856C249.102 14.7973 249.777 14.7533 250.452 14.724C251.126 14.6947 251.772 14.68 252.388 14.68C254.705 14.68 256.553 14.988 257.932 15.604C259.31 16.1907 260.308 17.1 260.924 18.332C261.54 19.5347 261.848 21.0747 261.848 22.952V38H260ZM251.948 38.616C250.393 38.616 249 38.3373 247.768 37.78C246.536 37.2227 245.553 36.4013 244.82 35.316C244.116 34.2307 243.764 32.9107 243.764 31.356C243.764 29.86 244.101 28.584 244.776 27.528C245.48 26.472 246.477 25.6653 247.768 25.108C249.088 24.5507 250.672 24.272 252.52 24.272H259.78V26.164H252.3C250.305 26.164 248.765 26.648 247.68 27.616C246.624 28.5547 246.096 29.8013 246.096 31.356C246.096 32.9987 246.668 34.304 247.812 35.272C248.956 36.2107 250.452 36.68 252.3 36.68C253.444 36.68 254.558 36.46 255.644 36.02C256.729 35.58 257.638 34.8467 258.372 33.82C259.105 32.764 259.501 31.356 259.56 29.596L260.44 30.608C260.352 32.3973 259.912 33.8933 259.12 35.096C258.357 36.2693 257.36 37.1493 256.128 37.736C254.896 38.3227 253.502 38.616 251.948 38.616ZM270.715 38V5.88H273.047V38H270.715ZM267.239 7.86V5.88H273.047V7.86H267.239ZM282.098 38V14.9H283.946V24.36H283.418C283.418 22.3653 283.712 20.62 284.298 19.124C284.914 17.5987 285.824 16.4107 287.026 15.56C288.229 14.7093 289.754 14.284 291.602 14.284H291.734C293.553 14.284 295.064 14.7093 296.266 15.56C297.469 16.3813 298.349 17.5547 298.906 19.08C299.493 20.576 299.786 22.336 299.786 24.36H298.906C298.906 22.3653 299.2 20.62 299.786 19.124C300.402 17.5987 301.312 16.4107 302.514 15.56C303.746 14.7093 305.286 14.284 307.134 14.284H307.266C309.085 14.284 310.596 14.7093 311.798 15.56C313.03 16.3813 313.94 17.5547 314.526 19.08C315.113 20.576 315.406 22.336 315.406 24.36V38H313.074V23.832C313.074 21.632 312.532 19.8573 311.446 18.508C310.39 17.1293 308.821 16.44 306.738 16.44C304.626 16.44 302.954 17.144 301.722 18.552C300.52 19.96 299.918 21.7933 299.918 24.052V38H297.586V23.832C297.586 21.632 297.044 19.8573 295.958 18.508C294.902 17.1293 293.333 16.44 291.25 16.44C289.138 16.44 287.466 17.144 286.234 18.552C285.032 19.96 284.43 21.7933 284.43 24.052V38H282.098ZM333.581 38.748C331.615 38.748 329.914 38.4107 328.477 37.736C327.039 37.032 325.866 36.108 324.957 34.964C324.047 33.7907 323.358 32.4853 322.889 31.048C322.449 29.5813 322.229 28.1 322.229 26.604V26.164C322.229 24.6387 322.449 23.172 322.889 21.764C323.358 20.356 324.047 19.08 324.957 17.936C325.895 16.7627 327.054 15.8533 328.433 15.208C329.841 14.5333 331.469 14.196 333.317 14.196C335.663 14.196 337.629 14.724 339.213 15.78C340.826 16.8067 342.043 18.156 342.865 19.828C343.686 21.5 344.097 23.26 344.097 25.108V26.692H323.329V24.756H342.557L341.853 25.636C341.853 23.8467 341.515 22.248 340.841 20.84C340.195 19.432 339.227 18.332 337.937 17.54C336.675 16.7187 335.135 16.308 333.317 16.308C331.351 16.308 329.709 16.7627 328.389 17.672C327.069 18.5813 326.071 19.7987 325.397 21.324C324.751 22.8493 324.429 24.536 324.429 26.384C324.429 28.232 324.751 29.9333 325.397 31.488C326.071 33.0133 327.083 34.26 328.433 35.228C329.782 36.1667 331.498 36.636 333.581 36.636C335.81 36.636 337.599 36.1227 338.949 35.096C340.327 34.0693 341.163 32.8373 341.457 31.4H343.745C343.422 32.8373 342.806 34.1133 341.897 35.228C340.987 36.3427 339.829 37.208 338.421 37.824C337.042 38.44 335.429 38.748 333.581 38.748ZM352.037 38V14.9H354.413V38H352.037ZM348.209 16.924V14.9H354.413V16.924H348.209ZM352.257 10.06C351.641 10.06 351.172 9.89866 350.849 9.576C350.527 9.224 350.365 8.784 350.365 8.256C350.365 7.69866 350.527 7.244 350.849 6.892C351.172 6.54 351.656 6.364 352.301 6.364C352.917 6.364 353.387 6.54 353.709 6.892C354.032 7.244 354.193 7.69866 354.193 8.256C354.193 8.784 354.032 9.224 353.709 9.576C353.416 9.89866 352.932 10.06 352.257 10.06ZM372.808 38.748C371.078 38.748 369.508 38.4253 368.1 37.78C366.722 37.1053 365.548 36.2107 364.58 35.096C363.612 33.952 362.864 32.6613 362.336 31.224C361.838 29.7867 361.588 28.276 361.588 26.692V26.252C361.588 24.7267 361.838 23.26 362.336 21.852C362.835 20.4147 363.554 19.124 364.492 17.98C365.46 16.8067 366.634 15.8827 368.012 15.208C369.391 14.5333 370.975 14.196 372.764 14.196C374.847 14.196 376.651 14.6653 378.176 15.604C379.731 16.5427 380.934 17.8333 381.784 19.476C382.664 21.0893 383.134 22.9373 383.192 25.02L382.004 22.424V5.88H384.336V38H382.488V27.748H383.368C383.31 29.948 382.826 31.884 381.916 33.556C381.007 35.1987 379.76 36.4747 378.176 37.384C376.622 38.2933 374.832 38.748 372.808 38.748ZM373.028 36.636C374.818 36.636 376.387 36.24 377.736 35.448C379.115 34.656 380.186 33.5853 380.948 32.236C381.74 30.8573 382.136 29.288 382.136 27.528V25.24C382.136 23.568 381.74 22.0573 380.948 20.708C380.186 19.3587 379.115 18.288 377.736 17.496C376.387 16.704 374.818 16.308 373.028 16.308C371.092 16.308 369.45 16.7773 368.1 17.716C366.751 18.6547 365.71 19.9013 364.976 21.456C364.272 22.9813 363.92 24.6533 363.92 26.472C363.92 28.3493 364.287 30.0653 365.02 31.62C365.754 33.1453 366.795 34.3627 368.144 35.272C369.523 36.1813 371.151 36.636 373.028 36.636ZM407.511 38V31.092H407.071V22.6C407.071 20.752 406.587 19.3293 405.619 18.332C404.651 17.3053 403.053 16.792 400.823 16.792C400.031 16.792 399.225 16.8213 398.403 16.88C397.582 16.9093 396.805 16.9533 396.071 17.012C395.338 17.0413 394.678 17.1 394.091 17.188V15.076C394.678 14.988 395.294 14.9147 395.939 14.856C396.614 14.7973 397.289 14.7533 397.963 14.724C398.638 14.6947 399.283 14.68 399.899 14.68C402.217 14.68 404.065 14.988 405.443 15.604C406.822 16.1907 407.819 17.1 408.435 18.332C409.051 19.5347 409.359 21.0747 409.359 22.952V38H407.511ZM399.459 38.616C397.905 38.616 396.511 38.3373 395.279 37.78C394.047 37.2227 393.065 36.4013 392.331 35.316C391.627 34.2307 391.275 32.9107 391.275 31.356C391.275 29.86 391.613 28.584 392.287 27.528C392.991 26.472 393.989 25.6653 395.279 25.108C396.599 24.5507 398.183 24.272 400.031 24.272H407.291V26.164H399.811C397.817 26.164 396.277 26.648 395.191 27.616C394.135 28.5547 393.607 29.8013 393.607 31.356C393.607 32.9987 394.179 34.304 395.323 35.272C396.467 36.2107 397.963 36.68 399.811 36.68C400.955 36.68 402.07 36.46 403.155 36.02C404.241 35.58 405.15 34.8467 405.883 33.82C406.617 32.764 407.013 31.356 407.071 29.596L407.951 30.608C407.863 32.3973 407.423 33.8933 406.631 35.096C405.869 36.2693 404.871 37.1493 403.639 37.736C402.407 38.3227 401.014 38.616 399.459 38.616Z" fill="white"/>
<path d="M21.2971 9L25.0458 14.9831L7.41596 25.385L32 39.986L28.1426 46.1613L0 28.4863V22.3385L21.2971 9Z" fill="#F13024"/>
<path d="M424.703 37.1614L420.954 31.1782L438.584 20.7764L414 6.17534L417.857 8.68752e-05L446 17.675V23.8228L424.703 37.1614Z" fill="#F13024"/>
</svg>
