<svg width="277" height="42" viewBox="0 0 277 42" fill="none" xmlns="http://www.w3.org/2000/svg">
<path d="M21.2971 4.00024L25.0458 9.98337L7.41596 20.3852L32 34.9863L28.1426 41.1615L0 23.4866V17.3388L21.2971 4.00024Z" fill="white"/>
<path d="M255.703 37.1614L251.954 31.1782L269.584 20.7764L245 6.17534L248.857 8.68752e-05L277 17.675V23.8228L255.703 37.1614Z" fill="white"/>
<path d="M43.676 35.2102C42.304 35.2102 41.1 35.0142 40.064 34.6222C39.028 34.2022 38.23 33.5022 37.67 32.5222C37.11 31.5422 36.83 30.2262 36.83 28.5742V5.76824H39.014V28.9522C39.014 30.2962 39.378 31.3462 40.106 32.1022C40.862 32.8302 41.898 33.1942 43.214 33.1942H47.33V35.2102H43.676ZM32.63 14.7562V12.9502H47.33V14.7562H32.63ZM57.6197 35.0002V12.9502H59.3837V22.2742H59.0477C59.0477 19.0822 59.7617 16.7022 61.1897 15.1342C62.6177 13.5662 64.9277 12.7822 68.1197 12.7822H68.8757V14.7982H67.6997C65.0957 14.7982 63.1357 15.4702 61.8197 16.8142C60.5037 18.1302 59.8457 20.0762 59.8457 22.6522V35.0002H57.6197ZM79.269 35.0002V12.9502H81.537V35.0002H79.269ZM75.615 14.8822V12.9502H81.537V14.8822H75.615ZM79.479 8.33024C78.891 8.33024 78.443 8.17624 78.135 7.86824C77.827 7.53224 77.673 7.11224 77.673 6.60824C77.673 6.07624 77.827 5.64224 78.135 5.30624C78.443 4.97024 78.905 4.80224 79.521 4.80224C80.109 4.80224 80.557 4.97024 80.865 5.30624C81.173 5.64224 81.327 6.07624 81.327 6.60824C81.327 7.11224 81.173 7.53224 80.865 7.86824C80.585 8.17624 80.123 8.33024 79.479 8.33024ZM103.044 35.7142C101.224 35.7142 99.6277 35.3782 98.2557 34.7062C96.9117 34.0342 95.7777 33.1382 94.8537 32.0182C93.9577 30.8982 93.2857 29.6522 92.8377 28.2802C92.3897 26.9082 92.1657 25.5222 92.1657 24.1222V23.7022C92.1657 22.2742 92.3897 20.8742 92.8377 19.5022C93.2857 18.1302 93.9577 16.9122 94.8537 15.8482C95.7777 14.7562 96.9117 13.8882 98.2557 13.2442C99.6277 12.6002 101.224 12.2782 103.044 12.2782C104.808 12.2782 106.376 12.6002 107.748 13.2442C109.148 13.8882 110.282 14.7982 111.15 15.9742C112.046 17.1222 112.606 18.5082 112.83 20.1322H110.646C110.394 18.4522 109.61 17.0662 108.294 15.9742C106.978 14.8542 105.228 14.2942 103.044 14.2942C101.112 14.2942 99.5017 14.7282 98.2137 15.5962C96.9257 16.4642 95.9597 17.6262 95.3157 19.0822C94.6997 20.5382 94.3917 22.1482 94.3917 23.9122C94.3917 25.6202 94.7137 27.2162 95.3577 28.7002C96.0017 30.1842 96.9677 31.3882 98.2557 32.3122C99.5437 33.2082 101.14 33.6562 103.044 33.6562C104.528 33.6562 105.83 33.3902 106.95 32.8582C108.098 32.2982 109.022 31.5702 109.722 30.6742C110.422 29.7502 110.842 28.7422 110.982 27.6502H113.166C112.97 29.2742 112.41 30.6882 111.486 31.8922C110.562 33.0682 109.372 34.0062 107.916 34.7062C106.46 35.3782 104.836 35.7142 103.044 35.7142ZM123.059 35.0002V4.34024H125.285V20.7202L124.487 22.1482C124.487 20.2162 124.781 18.5222 125.369 17.0662C125.985 15.5822 126.909 14.4342 128.141 13.6222C129.373 12.7822 130.927 12.3622 132.803 12.3622H132.887C135.631 12.3622 137.703 13.2302 139.103 14.9662C140.503 16.6742 141.203 19.0122 141.203 21.9802V35.0002H138.935V21.4762C138.935 19.3482 138.361 17.6402 137.213 16.3522C136.065 15.0642 134.441 14.4202 132.341 14.4202C130.185 14.4202 128.463 15.1062 127.175 16.4782C125.915 17.8222 125.285 19.5862 125.285 21.7702V35.0002H123.059ZM166.817 35.0002V28.4062H166.397V20.3002C166.397 18.5362 165.935 17.1782 165.011 16.2262C164.087 15.2462 162.561 14.7562 160.433 14.7562C159.677 14.7562 158.907 14.7842 158.123 14.8402C157.339 14.8682 156.597 14.9102 155.897 14.9662C155.197 14.9942 154.567 15.0502 154.007 15.1342V13.1182C154.567 13.0342 155.155 12.9642 155.771 12.9082C156.415 12.8522 157.059 12.8102 157.703 12.7822C158.347 12.7542 158.963 12.7402 159.551 12.7402C161.763 12.7402 163.527 13.0342 164.843 13.6222C166.159 14.1822 167.111 15.0502 167.699 16.2262C168.287 17.3742 168.581 18.8442 168.581 20.6362V35.0002H166.817ZM159.131 35.5882C157.647 35.5882 156.317 35.3222 155.141 34.7902C153.965 34.2582 153.027 33.4742 152.327 32.4382C151.655 31.4022 151.319 30.1422 151.319 28.6582C151.319 27.2302 151.641 26.0122 152.285 25.0042C152.957 23.9962 153.909 23.2262 155.141 22.6942C156.401 22.1622 157.913 21.8962 159.677 21.8962H166.607V23.7022H159.467C157.563 23.7022 156.093 24.1642 155.057 25.0882C154.049 25.9842 153.545 27.1742 153.545 28.6582C153.545 30.2262 154.091 31.4722 155.183 32.3962C156.275 33.2922 157.703 33.7402 159.467 33.7402C160.559 33.7402 161.623 33.5302 162.659 33.1102C163.695 32.6902 164.563 31.9902 165.263 31.0102C165.963 30.0022 166.341 28.6582 166.397 26.9782L167.237 27.9442C167.153 29.6522 166.733 31.0802 165.977 32.2282C165.249 33.3482 164.297 34.1882 163.121 34.7482C161.945 35.3082 160.615 35.5882 159.131 35.5882ZM181.875 35.0002V12.9502H184.143V35.0002H181.875ZM178.221 14.8822V12.9502H184.143V14.8822H178.221ZM182.085 8.33024C181.497 8.33024 181.049 8.17624 180.741 7.86824C180.433 7.53224 180.279 7.11224 180.279 6.60824C180.279 6.07624 180.433 5.64224 180.741 5.30624C181.049 4.97024 181.511 4.80224 182.127 4.80224C182.715 4.80224 183.163 4.97024 183.471 5.30624C183.779 5.64224 183.933 6.07624 183.933 6.60824C183.933 7.11224 183.779 7.53224 183.471 7.86824C183.191 8.17624 182.729 8.33024 182.085 8.33024ZM196.62 35.0002V12.9502H198.384V21.9802H197.88C197.88 20.0482 198.188 18.3682 198.804 16.9402C199.448 15.4842 200.386 14.3642 201.618 13.5802C202.878 12.7682 204.432 12.3622 206.28 12.3622H206.406C209.178 12.3622 211.264 13.2302 212.664 14.9662C214.064 16.6742 214.764 19.0122 214.764 21.9802V35.0002H212.496V21.4762C212.496 19.3762 211.922 17.6822 210.774 16.3942C209.654 15.0782 208.03 14.4202 205.902 14.4202C203.746 14.4202 202.024 15.0922 200.736 16.4362C199.476 17.7522 198.846 19.5022 198.846 21.6862V35.0002H196.62ZM233.49 35.6302C230.746 35.6302 228.632 35.0002 227.148 33.7402C225.692 32.4802 224.95 30.8702 224.922 28.9102H227.106C227.106 30.1702 227.596 31.2762 228.576 32.2282C229.584 33.1522 231.222 33.6142 233.49 33.6142C235.702 33.6142 237.326 33.1522 238.362 32.2282C239.398 31.2762 239.916 30.1562 239.916 28.8682C239.916 27.6082 239.44 26.6422 238.488 25.9702C237.564 25.2982 236.304 24.8782 234.708 24.7102L232.104 24.4162C230.172 24.1922 228.632 23.5902 227.484 22.6102C226.364 21.6302 225.804 20.3002 225.804 18.6202C225.804 17.4162 226.112 16.3382 226.728 15.3862C227.344 14.4342 228.226 13.6782 229.374 13.1182C230.55 12.5582 231.922 12.2782 233.49 12.2782C235.786 12.2782 237.634 12.8382 239.034 13.9582C240.462 15.0782 241.19 16.6042 241.218 18.5362H239.034C239.062 17.3322 238.586 16.3242 237.606 15.5122C236.654 14.7002 235.282 14.2942 233.49 14.2942C231.614 14.2942 230.214 14.7282 229.29 15.5962C228.394 16.4642 227.946 17.4862 227.946 18.6622C227.946 19.6422 228.296 20.4822 228.996 21.1822C229.724 21.8822 230.816 22.3162 232.272 22.4842L234.876 22.7782C236.948 22.9742 238.656 23.5762 240 24.5842C241.372 25.5922 242.058 27.0342 242.058 28.9102C242.058 30.1702 241.708 31.3042 241.008 32.3122C240.336 33.3202 239.37 34.1322 238.11 34.7482C236.85 35.3362 235.31 35.6302 233.49 35.6302Z" fill="#CCCCCC"/>
</svg>
