<svg width="141" height="148" viewBox="0 0 141 148" fill="none" xmlns="http://www.w3.org/2000/svg">
<g clip-path="url(#clip0_244_185)">
<path d="M64.3799 0C64.4199 0 64.4566 0 64.4899 0C66.1566 0.226667 67.3833 1.06333 68.1699 2.51C72.1399 9.85 62.1399 14.31 60.1599 7.47C59.1399 3.94 60.4199 0.59 64.3799 0ZM64.8241 9.5399C65.2554 9.49687 65.6719 9.3495 66.05 9.1062C66.4281 8.86291 66.7603 8.52847 67.0277 8.12196C67.2951 7.71545 67.4924 7.24484 67.6084 6.737C67.7244 6.22917 67.7567 5.69405 67.7036 5.1622C67.5964 4.08811 67.1477 3.09255 66.456 2.39452C65.7644 1.69649 64.8866 1.35318 64.0157 1.4401C63.5845 1.48313 63.168 1.6305 62.7899 1.87379C62.4118 2.11709 62.0796 2.45153 61.8122 2.85804C61.5448 3.26455 61.3475 3.73516 61.2315 4.243C61.1155 4.75083 61.0831 5.28595 61.1362 5.8178C61.2434 6.89189 61.6922 7.88745 62.3838 8.58548C63.0755 9.28351 63.9533 9.62682 64.8241 9.5399Z" fill="#F9FAFA"/>
<path d="M77.65 10.39C78.2633 10.5834 78.8266 10.49 79.34 10.11C79.6266 9.89004 79.7933 9.60338 79.84 9.25004L80.82 2.04004C80.8666 1.67338 81.0733 1.47338 81.44 1.44004L81.78 1.40004C81.8513 1.39309 81.9233 1.40255 81.9904 1.42769C82.0576 1.45284 82.118 1.493 82.1672 1.54511C82.2165 1.59723 82.2531 1.6599 82.2744 1.72836C82.2956 1.79681 82.301 1.86921 82.29 1.94004C81.9433 3.92671 81.6533 6.11671 81.42 8.51004C80.97 13.11 75.02 12.28 75.36 8.92004C75.3704 8.80806 75.4168 8.70248 75.4924 8.61912C75.5679 8.53577 75.6683 8.47915 75.7788 8.45774C75.8892 8.43634 76.0035 8.4513 76.1047 8.5004C76.2059 8.54949 76.2885 8.63007 76.34 8.73004L76.88 9.75004C77.0533 10.07 77.31 10.2834 77.65 10.39Z" fill="#F9FAFA"/>
<path d="M48.4599 10.98L49.3899 14.1C49.4832 14.4133 49.3666 14.5933 49.0399 14.64L48.7299 14.68C48.3499 14.7333 48.1032 14.5767 47.9899 14.21L45.1799 5.26999C45.0532 4.87666 45.1932 4.62999 45.5999 4.52999C47.3399 4.09999 49.5999 2.91999 51.3099 3.85999C53.2599 4.91999 53.3299 7.01999 52.2399 8.79999C52.144 8.95855 52.1055 9.14494 52.131 9.32733C52.1566 9.50972 52.2445 9.67678 52.3799 9.79999L55.0199 12.23C55.2399 12.4367 55.2166 12.61 54.9499 12.75L54.3999 13.04C54.3279 13.0781 54.2448 13.0919 54.1624 13.0793C54.0799 13.0668 54.0021 13.0285 53.9399 12.97L50.9399 10.11C50.6999 9.88333 50.4299 9.83333 50.1299 9.95999C49.7499 10.12 49.3532 10.22 48.9399 10.26C48.4866 10.3067 48.3266 10.5467 48.4599 10.98ZM46.9199 6.07999L47.7599 8.74999C47.7815 8.81768 47.8162 8.88045 47.8621 8.9347C47.908 8.98894 47.9641 9.0336 48.0273 9.06612C48.0904 9.09863 48.1594 9.11836 48.2302 9.12417C48.301 9.12999 48.3723 9.12177 48.4399 9.09999L50.2399 8.52999C50.477 8.4552 50.6995 8.34229 50.8947 8.19771C51.09 8.05313 51.254 7.87973 51.3776 7.68745C51.5011 7.49516 51.5817 7.28776 51.6147 7.07714C51.6477 6.86651 51.6325 6.65679 51.5699 6.45999L51.3499 5.74999C51.287 5.5536 51.1781 5.37401 51.0295 5.22147C50.8808 5.06894 50.6953 4.94646 50.4836 4.86103C50.2719 4.77559 50.0381 4.72888 49.7955 4.72356C49.5529 4.71823 49.3064 4.7544 49.0699 4.82999L47.2699 5.39999C47.2022 5.42157 47.1394 5.4563 47.0852 5.50218C47.0309 5.54806 46.9863 5.60419 46.9538 5.66736C46.9213 5.73053 46.9015 5.79949 46.8957 5.8703C46.8899 5.94111 46.8981 6.01237 46.9199 6.07999Z" fill="#F9FAFA"/>
<path d="M89.3599 13.05C90.6399 13.21 91.9432 13.6567 93.2699 14.39C93.6766 14.61 93.6999 14.8634 93.3399 15.15C93.2666 15.21 93.1899 15.2567 93.1099 15.29C92.9366 15.3634 92.7599 15.3734 92.5799 15.32C90.8532 14.8134 89.2066 14.26 87.6399 13.66C87.4793 13.5971 87.3491 13.4747 87.2764 13.3182C87.2038 13.1618 87.1943 12.9833 87.2499 12.82L90.0899 4.27002C90.2432 3.82335 90.5399 3.67668 90.9799 3.83002L95.9299 5.50002C95.9835 5.51793 96.0326 5.54727 96.0738 5.58609C96.1151 5.62491 96.1477 5.67234 96.1694 5.72524C96.1912 5.77815 96.2016 5.83534 96.1999 5.89304C96.1983 5.95074 96.1846 6.00765 96.1599 6.06002L95.9599 6.46002C95.9015 6.57726 95.8017 6.6687 95.6798 6.71671C95.5579 6.76473 95.4226 6.7659 95.2999 6.72002L91.6099 5.35002C91.3832 5.26335 91.2333 5.33335 91.1599 5.56002L90.3199 8.02002C90.294 8.10096 90.3004 8.18877 90.3377 8.26514C90.3749 8.34152 90.4402 8.40057 90.5199 8.43002L94.3599 9.79002C94.4405 9.81953 94.5074 9.87758 94.5479 9.95317C94.5885 10.0287 94.5999 10.1166 94.5799 10.2L94.5199 10.5C94.4666 10.7134 94.3332 10.8067 94.1199 10.78C92.7532 10.6067 91.4999 10.25 90.3599 9.71002C89.9932 9.53668 89.7566 9.64668 89.6499 10.04L88.9899 12.49C88.8966 12.8167 89.0199 13.0034 89.3599 13.05Z" fill="#F9FAFA"/>
<path d="M36.08 17.2799L37.38 19.5999C37.4043 19.6445 37.4194 19.6934 37.4245 19.7438C37.4296 19.7943 37.4245 19.8452 37.4096 19.8937C37.3947 19.9421 37.3702 19.9871 37.3377 20.026C37.3051 20.0648 37.2651 20.0968 37.22 20.1199L36.89 20.2899C36.5033 20.4833 36.2033 20.3899 35.99 20.0099L31.6 11.9399C31.4 11.5733 31.4867 11.2966 31.86 11.1099C34.2 9.89994 36.79 7.56994 38.92 10.8599C40.58 13.4199 38.79 15.1299 36.48 16.0999C35.9067 16.3399 35.7733 16.7333 36.08 17.2799ZM33.25 12.2099L34.92 15.1799C34.9705 15.27 35.0546 15.3364 35.154 15.3645C35.2534 15.3926 35.3598 15.3802 35.45 15.3299L37.01 14.4499C37.2555 14.3127 37.475 14.1347 37.6561 13.9262C37.8373 13.7178 37.9764 13.4828 38.0655 13.2348C38.1547 12.9869 38.1921 12.7307 38.1757 12.4811C38.1594 12.2315 38.0894 11.9932 37.97 11.7799L37.74 11.3799C37.6201 11.1669 37.453 10.9832 37.2483 10.8393C37.0436 10.6953 36.8054 10.594 36.5472 10.5411C36.289 10.4881 36.0159 10.4846 35.7436 10.5308C35.4712 10.5769 35.205 10.6718 34.96 10.8099L33.4 11.6799C33.3099 11.7304 33.2436 11.8146 33.2155 11.9139C33.1873 12.0133 33.1998 12.1197 33.25 12.2099Z" fill="#F9FAFA"/>
<path d="M102.05 14.3501C100.75 17.5801 103.59 20.7601 106.46 18.5201C106.56 18.4401 106.687 18.4009 106.815 18.4102C106.943 18.4194 107.062 18.4765 107.15 18.5701L107.52 18.96C107.713 19.1667 107.697 19.3534 107.47 19.5201C106.137 20.5067 104.8 20.7767 103.46 20.3301C98.94 18.8001 99.8 13.9201 102.74 11.24C105.66 8.58005 109.36 10.8901 110.03 14.3501C110.143 14.9367 109.957 15.3867 109.47 15.7C109.383 15.757 109.281 15.7876 109.177 15.7882C109.073 15.7888 108.971 15.7593 108.884 15.7033C108.796 15.6473 108.726 15.5672 108.683 15.4726C108.64 15.378 108.625 15.273 108.64 15.1701C109.29 10.4601 103.61 10.5001 102.05 14.3501Z" fill="#F9FAFA"/>
<path d="M118.44 20.5101C117.747 20.0034 117.207 19.3734 116.82 18.6201C116.6 18.1934 116.723 18.0367 117.19 18.1501C117.637 18.2567 118.03 18.4767 118.37 18.8101C119.823 20.2501 121.323 21.6234 122.87 22.9301C122.928 22.9781 122.973 23.0398 123 23.1096C123.028 23.1794 123.038 23.255 123.029 23.3295C123.02 23.4041 122.993 23.4752 122.949 23.5364C122.906 23.5977 122.848 23.647 122.78 23.6801L122.48 23.8301C122.35 23.897 122.201 23.9157 122.059 23.8827C121.918 23.8496 121.794 23.7671 121.71 23.6501C121.33 23.1301 120.873 22.6901 120.34 22.3301C120.013 22.1101 119.713 22.1434 119.44 22.4301L113.82 28.3501C113.587 28.6034 113.367 28.5901 113.16 28.3101L112.92 27.9701C112.78 27.7767 112.793 27.5934 112.96 27.4201L118.53 21.5101C118.883 21.1434 118.853 20.8101 118.44 20.5101Z" fill="#F9FAFA"/>
<path d="M18.34 27.1799C17.6467 25.6199 17.1934 24.0066 16.98 22.3399C16.9467 22.0666 17.06 21.8899 17.32 21.8099L17.65 21.7099C17.8634 21.6499 18 21.7233 18.06 21.9299L19.85 27.9099C19.9415 28.2039 20.1151 28.4643 20.35 28.6599L22.67 30.6199C22.7355 30.6759 22.789 30.7444 22.8272 30.8214C22.8654 30.8983 22.8875 30.982 22.8922 31.0673C22.8969 31.1526 22.884 31.2376 22.8544 31.3172C22.8248 31.3968 22.7791 31.4692 22.72 31.5299L22.49 31.7699C22.4303 31.8256 22.3535 31.8591 22.2732 31.8646C22.1928 31.8701 22.1139 31.8472 22.05 31.7999C20.51 30.6799 19.78 29.3799 17.71 28.9999C15.9834 28.6866 14.23 28.4099 12.45 28.1699C12.3846 28.1616 12.3228 28.1354 12.2713 28.0943C12.2197 28.0532 12.1804 27.9987 12.1577 27.9368C12.135 27.8749 12.1298 27.8079 12.1425 27.7432C12.1553 27.6786 12.1856 27.6186 12.23 27.5699L12.5 27.2699C12.7734 26.9766 13.1067 26.8633 13.5 26.9299L17.91 27.7199C18.3967 27.8066 18.54 27.6266 18.34 27.1799Z" fill="#F9FAFA"/>
<path d="M126.97 31.71C126.785 31.8371 126.643 32.0179 126.563 32.2285C126.482 32.4392 126.467 32.6698 126.52 32.89C126.89 34.45 128.11 36.57 127.34 38.12C126.807 39.18 125.897 39.68 124.61 39.62C123.22 39.55 122.34 38.39 121.6 37.37C120.707 36.1367 120.683 34.9367 121.53 33.77C121.983 33.1433 122.32 33.2 122.54 33.94C122.687 34.4467 122.653 34.9267 122.44 35.38C122.327 35.6133 122.32 35.8633 122.42 36.13C122.907 37.4767 123.747 38.1933 124.94 38.28C125.162 38.2946 125.385 38.253 125.587 38.1592C125.789 38.0655 125.964 37.9224 126.097 37.7432C126.229 37.564 126.314 37.3545 126.345 37.1337C126.375 36.913 126.349 36.6882 126.27 36.48C125.64 34.83 124.47 32.38 125.89 30.91C127.083 29.6767 128.377 29.6533 129.77 30.84C131.563 32.3667 131.94 34.05 130.9 35.89C130.868 35.9463 130.825 35.9954 130.774 36.0343C130.722 36.0732 130.663 36.1011 130.6 36.1161C130.537 36.1311 130.472 36.133 130.408 36.1216C130.344 36.1102 130.284 36.0859 130.23 36.05L130.01 35.91C129.878 35.8202 129.784 35.685 129.745 35.5301C129.706 35.3751 129.726 35.2114 129.8 35.07C130.48 33.7967 130.2 32.6933 128.96 31.76C128.313 31.2667 127.65 31.25 126.97 31.71Z" fill="#F9FAFA"/>
<path d="M6.42006 44.85L11.5001 47.48C11.6097 47.5375 11.7025 47.6231 11.7691 47.7284C11.8358 47.8336 11.874 47.9548 11.8801 48.08L11.8901 48.46C11.8938 48.5345 11.8776 48.6086 11.8432 48.6748C11.8088 48.7409 11.7573 48.7968 11.6942 48.8365C11.6311 48.8762 11.5585 48.8984 11.484 48.9007C11.4094 48.9031 11.3356 48.8856 11.2701 48.85L3.06006 44.46C2.76006 44.2933 2.67339 44.05 2.80006 43.73C3.06006 43.09 3.54673 42.8067 4.26006 42.88C6.78006 43.1533 9.17006 43.4067 11.4301 43.64C12.0434 43.7 12.1534 43.49 11.7601 43.01L6.83006 37.03C6.57673 36.7167 6.57006 36.4 6.81006 36.08C6.93006 35.9267 7.07006 35.8 7.23006 35.7C7.45673 35.5667 7.68339 35.56 7.91006 35.68L15.9301 39.93C16.2034 40.07 16.2734 40.28 16.1401 40.56L15.9601 40.95C15.9368 41.0001 15.9035 41.0449 15.8621 41.0815C15.8207 41.1182 15.7721 41.1458 15.7195 41.1627C15.6669 41.1796 15.6113 41.1854 15.5564 41.1798C15.5014 41.1742 15.4482 41.1572 15.4001 41.13L10.6401 38.56C9.50006 37.9467 9.34006 38.14 10.1601 39.14L14.0301 43.85C14.1313 43.9739 14.1931 44.1253 14.2075 44.2846C14.2218 44.444 14.1881 44.604 14.1105 44.7439C14.033 44.8839 13.9153 44.9974 13.7726 45.0698C13.6299 45.1422 13.4688 45.1701 13.3101 45.15L6.56006 44.38C5.64673 44.2733 5.60006 44.43 6.42006 44.85Z" fill="#F9FAFA"/>
<path d="M137.98 73.39C139.261 73.39 140.3 72.3513 140.3 71.07C140.3 69.7887 139.261 68.75 137.98 68.75C136.699 68.75 135.66 69.7887 135.66 71.07C135.66 72.3513 136.699 73.39 137.98 73.39Z" fill="#6600FF"/>
<path d="M0 79.37V78.79C1.8 75.14 5.5 77.3 4.3 80.08C4.09224 80.5523 3.7156 80.93 3.24389 81.139C2.77218 81.348 2.23942 81.3733 1.75 81.21C0.896667 80.9234 0.313333 80.31 0 79.37Z" fill="#6600FF"/>
<path d="M129.25 111.73C127.99 109.94 125.68 107.79 124.93 105.78C124.89 105.672 124.879 105.556 124.899 105.443C124.918 105.329 124.966 105.223 125.039 105.134C125.111 105.045 125.206 104.977 125.313 104.936C125.42 104.895 125.536 104.882 125.65 104.9C128.01 105.287 130.243 105.553 132.35 105.7C133.137 105.753 133.183 105.593 132.49 105.22L127.58 102.55C127.429 102.467 127.31 102.336 127.241 102.177C127.172 102.017 127.158 101.839 127.2 101.67L127.29 101.32C127.302 101.268 127.327 101.219 127.362 101.178C127.397 101.137 127.441 101.105 127.491 101.084C127.541 101.064 127.595 101.056 127.649 101.06C127.702 101.064 127.754 101.082 127.8 101.11L136.24 105.96C136.7 106.227 136.707 106.503 136.26 106.79C136.12 106.883 136.003 106.997 135.91 107.13C135.71 107.437 135.427 107.563 135.06 107.51L127.22 106.39C126.84 106.337 126.767 106.463 127 106.77L132.03 113.28C132.19 113.48 132.213 113.697 132.1 113.93L131.82 114.48C131.647 114.833 131.387 114.913 131.04 114.72L122.72 109.99C122.667 109.959 122.622 109.916 122.588 109.865C122.554 109.814 122.532 109.756 122.524 109.695C122.517 109.634 122.523 109.572 122.543 109.514C122.563 109.456 122.596 109.403 122.64 109.36L122.93 109.07C123.137 108.863 123.367 108.83 123.62 108.97L128.97 112.03C129.517 112.343 129.61 112.243 129.25 111.73Z" fill="#F9FAFA"/>
<path d="M11.5499 115.26C11.8374 115.126 12.0652 114.891 12.1889 114.599C12.3127 114.307 12.3238 113.98 12.2199 113.68C11.8932 112.733 11.5932 111.747 11.3199 110.72C10.5199 107.68 13.9699 105.98 16.1099 108.08C17.2099 109.167 17.7966 110.337 17.8699 111.59C17.896 111.973 17.7977 112.352 17.5899 112.67C16.9766 113.617 16.5199 113.85 16.2199 113.37C15.9799 112.997 15.9666 112.613 16.1799 112.22C17.0999 110.55 15.4199 108.35 13.5599 108.64C13.3961 108.666 13.2394 108.725 13.0998 108.815C12.9603 108.904 12.8411 109.022 12.7497 109.16C12.6584 109.299 12.597 109.455 12.5695 109.618C12.542 109.782 12.5489 109.949 12.5899 110.11C13.1099 112.14 14.7499 115.5 11.7299 116.57C11.0632 116.803 10.4299 116.77 9.82991 116.47C8.06991 115.59 7.26991 114.143 7.42991 112.13C7.47658 111.49 7.75325 111.01 8.25991 110.69C8.35979 110.627 8.47752 110.599 8.5951 110.609C8.71268 110.619 8.82363 110.668 8.91097 110.747C8.99831 110.827 9.05722 110.933 9.0787 111.049C9.10019 111.165 9.08305 111.285 9.02991 111.39C8.25658 112.903 8.56991 114.147 9.96991 115.12C10.4699 115.467 10.9966 115.513 11.5499 115.26Z" fill="#F9FAFA"/>
<path d="M120.23 122.82L121.48 127.11C121.547 127.343 121.497 127.55 121.33 127.73L120.69 128.41C120.517 128.597 120.397 128.567 120.33 128.32C119.783 126.247 119.243 124.283 118.71 122.43C118.32 121.06 116.98 120.01 115.87 119.21C115.617 119.03 115.573 118.81 115.74 118.55L116.04 118.09C116.073 118.039 116.118 117.996 116.17 117.965C116.222 117.934 116.281 117.914 116.342 117.909C116.403 117.903 116.466 117.911 116.524 117.932C116.582 117.953 116.636 117.986 116.68 118.03L118.96 120.33C119.26 120.63 119.62 120.82 120.04 120.9L126.02 122.1C126.513 122.2 126.583 122.423 126.23 122.77L125.89 123.11C125.78 123.22 125.646 123.301 125.499 123.344C125.352 123.388 125.197 123.394 125.05 123.36L120.67 122.35C120.257 122.257 120.11 122.413 120.23 122.82Z" fill="#F9FAFA"/>
<path d="M18.39 124.48L24.47 118.42C24.4991 118.391 24.5343 118.368 24.5731 118.354C24.6119 118.34 24.6533 118.335 24.6944 118.339C24.7355 118.343 24.7752 118.355 24.8108 118.376C24.8463 118.397 24.8768 118.426 24.9 118.46L25.28 119C25.3183 119.054 25.3363 119.12 25.3308 119.186C25.3253 119.251 25.2967 119.313 25.25 119.36L19.4 125.51C19.3493 125.562 19.3209 125.632 19.3209 125.705C19.3209 125.778 19.3493 125.848 19.4 125.9L21.31 127.81C21.3552 127.858 21.382 127.921 21.3856 127.986C21.3893 128.052 21.3696 128.117 21.33 128.17L20.83 128.84C20.8059 128.872 20.7753 128.898 20.7403 128.917C20.7052 128.936 20.6665 128.947 20.6268 128.95C20.587 128.953 20.5471 128.947 20.5097 128.934C20.4723 128.92 20.4383 128.898 20.41 128.87L14.99 123.5C14.9593 123.47 14.9359 123.434 14.9216 123.394C14.9072 123.353 14.9022 123.31 14.9071 123.268C14.9119 123.225 14.9264 123.184 14.9494 123.148C14.9725 123.112 15.0034 123.082 15.04 123.06L15.79 122.61C15.8431 122.578 15.9053 122.565 15.9668 122.572C16.0283 122.579 16.0857 122.607 16.13 122.65L17.99 124.49C18.0167 124.516 18.0484 124.536 18.0831 124.55C18.1178 124.564 18.1548 124.57 18.1921 124.569C18.2293 124.568 18.266 124.56 18.3 124.545C18.334 124.529 18.3646 124.507 18.39 124.48Z" fill="#F9FAFA"/>
<path d="M34.8001 135.31C38.2201 132.07 36.3001 126.81 31.3901 129.17C31.323 129.2 31.2473 129.204 31.1773 129.182C31.1072 129.16 31.0478 129.113 31.0101 129.05L30.8501 128.77C30.7034 128.517 30.7534 128.307 31.0001 128.14C32.9601 126.807 34.8034 126.943 36.5301 128.55C39.3201 131.14 37.2901 135.89 34.5201 137.11C31.1301 138.6 27.3301 135.79 28.3501 132.08C28.4368 131.767 28.6167 131.7 28.8901 131.88L29.3601 132.19C29.4325 132.241 29.4896 132.31 29.5249 132.389C29.5602 132.469 29.5724 132.556 29.5601 132.64C29.1001 135.87 32.6601 137.35 34.8001 135.31Z" fill="#F9FAFA"/>
<path d="M102.13 132.86L100.92 130.59C100.862 130.476 100.846 130.345 100.875 130.221C100.904 130.096 100.977 129.986 101.08 129.91L101.53 129.59C101.569 129.562 101.613 129.542 101.66 129.533C101.708 129.524 101.756 129.525 101.803 129.536C101.849 129.548 101.893 129.569 101.931 129.599C101.968 129.629 101.999 129.667 102.02 129.71L106.39 138.13C106.543 138.443 106.48 138.697 106.2 138.89C103.92 140.48 99.9999 142.36 98.6899 138.53C97.7699 135.84 99.5899 134.68 101.77 133.83C102.257 133.637 102.377 133.313 102.13 132.86ZM104.8 137.95L103.01 134.69C102.994 134.662 102.973 134.638 102.948 134.618C102.923 134.599 102.895 134.584 102.864 134.576C102.833 134.567 102.801 134.565 102.769 134.569C102.738 134.574 102.707 134.584 102.68 134.6L100.92 135.57C100.684 135.7 100.474 135.872 100.303 136.078C100.132 136.283 100.003 136.518 99.9233 136.768C99.8434 137.017 99.8144 137.278 99.8378 137.534C99.8613 137.79 99.9367 138.037 100.06 138.26L100.21 138.54C100.458 138.99 100.885 139.318 101.397 139.451C101.909 139.584 102.464 139.512 102.94 139.25L104.71 138.28C104.738 138.264 104.762 138.243 104.782 138.218C104.801 138.193 104.816 138.165 104.824 138.134C104.832 138.103 104.835 138.071 104.83 138.039C104.826 138.008 104.816 137.977 104.8 137.95Z" fill="#F9FAFA"/>
<path d="M47.23 139.45L43.48 138.1C43.3743 138.061 43.2831 137.991 43.2187 137.9C43.1543 137.809 43.1198 137.701 43.12 137.59V137.18C43.12 136.853 43.2767 136.743 43.59 136.85C44.85 137.297 46.07 137.72 47.25 138.12C47.393 138.167 47.5491 138.156 47.6853 138.089C47.8215 138.022 47.9272 137.904 47.98 137.76C48.0133 137.68 48.2733 136.987 48.76 135.68C48.8867 135.353 48.7833 135.13 48.45 135.01L44.63 133.68C44.2967 133.567 44.1933 133.347 44.32 133.02L44.44 132.72C44.4854 132.606 44.5725 132.514 44.6827 132.464C44.7929 132.413 44.9175 132.408 45.03 132.45L50.06 134.22C50.1428 134.25 50.2188 134.296 50.2837 134.356C50.3487 134.415 50.4012 134.487 50.4384 134.567C50.4755 134.647 50.4965 134.733 50.5003 134.821C50.504 134.909 50.4903 134.997 50.46 135.08L47.28 143.71C47.2489 143.794 47.2013 143.872 47.1401 143.937C47.0789 144.003 47.0053 144.056 46.9234 144.094C46.8416 144.131 46.7532 144.151 46.6634 144.154C46.5735 144.157 46.484 144.142 46.4 144.11L41.83 142.39C41.657 142.325 41.5078 142.209 41.4024 142.057C41.297 141.905 41.2404 141.725 41.24 141.54V141.2C41.2467 140.947 41.37 140.863 41.61 140.95L45.89 142.5C46.0433 142.553 46.1533 142.503 46.22 142.35L47.35 139.73C47.41 139.597 47.37 139.503 47.23 139.45Z" fill="#F9FAFA"/>
<path d="M89.3801 137.93L88.5901 134.81C88.4901 134.397 88.6501 134.213 89.0701 134.26L89.4501 134.31C89.5886 134.325 89.7197 134.382 89.8266 134.472C89.9335 134.563 90.0113 134.684 90.0501 134.82L92.4401 143.55C92.5601 143.99 92.4001 144.27 91.9601 144.39L88.2701 145.35C87.9167 145.443 87.5701 145.43 87.2301 145.31C85.0601 144.53 84.0701 142.13 85.5501 140.11C85.8034 139.763 85.7768 139.437 85.4701 139.13L82.9101 136.55C82.7634 136.397 82.7868 136.283 82.9801 136.21L83.8301 135.88C83.9005 135.853 83.9775 135.848 84.0507 135.866C84.124 135.884 84.1901 135.924 84.2401 135.98C84.9667 136.767 85.7634 137.633 86.6301 138.58C87.0234 139.007 87.4701 139.11 87.9701 138.89C88.3101 138.743 88.6668 138.62 89.0401 138.52C89.162 138.488 89.266 138.408 89.3296 138.297C89.3932 138.187 89.4113 138.055 89.3801 137.93ZM90.8501 142.98L89.9801 139.98C89.9522 139.888 89.8897 139.811 89.8057 139.764C89.7217 139.717 89.6229 139.705 89.5301 139.73L87.6801 140.26C87.1782 140.405 86.7457 140.713 86.4775 141.116C86.2094 141.519 86.1276 141.985 86.2501 142.41L86.4001 142.91C86.5226 143.335 86.8388 143.685 87.2793 143.884C87.7198 144.082 88.2487 144.113 88.7501 143.97L90.6001 143.44C90.6467 143.426 90.6902 143.403 90.728 143.373C90.7658 143.342 90.7972 143.305 90.8204 143.262C90.8436 143.219 90.8582 143.172 90.8633 143.124C90.8684 143.076 90.8639 143.027 90.8501 142.98Z" fill="#F9FAFA"/>
<path d="M73.4886 147.68C72.2602 147.753 71.0485 147.259 70.1201 146.305C69.1918 145.351 68.6228 144.017 68.5383 142.595C68.4538 141.173 68.8608 139.781 69.6697 138.724C70.4786 137.667 71.6232 137.032 72.8516 136.959C74.08 136.886 75.2917 137.381 76.22 138.335C77.1484 139.289 77.7174 140.623 77.8019 142.045C77.8863 143.466 77.4794 144.859 76.6705 145.916C75.8616 146.973 74.717 147.607 73.4886 147.68ZM73.4273 146.402C73.8612 146.376 74.2844 146.245 74.6728 146.017C75.0612 145.79 75.4072 145.47 75.691 145.075C75.9749 144.681 76.191 144.221 76.327 143.72C76.463 143.22 76.5164 142.689 76.4839 142.158C76.4183 141.086 76.0073 140.079 75.3414 139.359C74.6755 138.638 73.8091 138.264 72.9329 138.318C72.499 138.344 72.0758 138.475 71.6874 138.703C71.299 138.93 70.953 139.25 70.6691 139.644C70.3853 140.039 70.1692 140.499 70.0332 141C69.8971 141.5 69.8438 142.031 69.8763 142.562C69.9419 143.634 70.3528 144.641 71.0188 145.361C71.6847 146.081 72.5511 146.456 73.4273 146.402Z" fill="#F9FAFA"/>
<path d="M58.77 138.72C58.5961 138.84 58.4487 138.995 58.3369 139.173C58.2252 139.352 58.1513 139.552 58.12 139.76L56.99 146.63C56.9744 146.728 56.9392 146.822 56.8867 146.906C56.8341 146.99 56.7652 147.062 56.6841 147.119C56.603 147.176 56.5112 147.216 56.4143 147.237C56.3174 147.258 56.2173 147.259 56.12 147.24L55.82 147.18C55.7653 147.169 55.7132 147.148 55.6669 147.117C55.6206 147.086 55.5809 147.046 55.5502 146.999C55.5195 146.953 55.4983 146.9 55.488 146.846C55.4777 146.791 55.4783 146.734 55.49 146.68C55.8967 144.687 56.2167 142.763 56.45 140.91C56.5967 139.69 56.9667 138.733 57.56 138.04C59.03 136.32 62.79 137.18 62.54 139.92C62.5304 140.008 62.4968 140.092 62.443 140.163C62.3892 140.234 62.3173 140.288 62.2354 140.32C62.1535 140.353 62.0647 140.361 61.979 140.345C61.8933 140.329 61.814 140.289 61.75 140.23C61.4233 139.93 61.16 139.573 60.96 139.16C60.54 138.28 59.52 138.18 58.77 138.72Z" fill="#F9FAFA"/>
</g>
<defs>
<clipPath id="clip0_244_185">
<rect width="141" height="148" fill="white"/>
</clipPath>
</defs>
</svg>
